<svg version="1" xmlns="http://www.w3.org/2000/svg" width="933.333" height="933.333" viewBox="0 0 700.000000 700.000000"><path d="M25.5 26.2c-.3.7-.4 57.3-.3 125.8l.3 124.5h19l.3-115.8L45 45h397V25H234c-165.5 0-208.2.3-208.5 1.2zM491 35v10h164v28h20l-.2-23.8-.3-23.7-91.7-.3L491 25v10z"/><path d="M459 30.7c0 2.8.9 16.3 2.1 30 3.4 40.4 1.5 60.3-7.6 78.5-2 4-3.8 7.4-3.9 7.5-.1.1-3.5-.7-7.6-1.7-12.8-3.4-32.9-6.8-47.5-8.1-14.8-1.2-42.5-.7-54.9 1.1-3.8.6-7.1.8-7.4.5-.3-.3 0-4 .6-8.3.6-4.2 1.4-11.1 1.6-15.2l.6-7.5-1.9 6c-1.1 3.3-2.7 8.7-3.7 12l-1.7 6-1.4-6.5c-2.2-10.7-8.7-33.6-9.1-31.9-.2.9.4 8 1.2 15.7.9 7.8 1.6 17.6 1.5 21.9v7.8l-4.1-10.3c-2.3-5.6-4.3-10-4.5-9.8-.4.4 3.3 19.4 4.3 21.9.4 1-.8 1.8-4.2 2.6-4.3 1.1-4.9 1-7.3-1.1-1.4-1.2-2-1.6-1.3-.8 2.3 2.7 1.2 3.8-5.5 5.4-19.9 5-54.2 20.3-74.1 33-12.2 7.8-27.3 19.2-36.6 27.8l-6.8 6.2-3.6-2c-5.5-2.9-20.2-17.9-25.9-26.4-6.4-9.6-12.3-21.4-20.8-41.5-9-21.5-13.6-31.5-14.5-31.5-.8 0-4.6 22.9-6 36.5-5.1 49.4 1.5 97.3 17.7 129l2.1 3.9-3.5 7.6c-8.2 17.7-11.8 28.3-19.1 55.3-.7 2.7-.9 2.6-9.8-7.5C80 318.2 64 306.5 46 299.9c-10-3.6-27.3-7.5-38.2-8.5l-7.8-.7V534h3.9c8 0 27.3-3.1 41.2-6.6 24.8-6.2 49-15.4 69.6-26.4l9.2-4.9 4.6 8.7c19 36.9 52.3 72.2 89.3 95 42.3 25.9 89.8 39.2 140.3 39.2 46 0 85.6-9.3 126.9-29.9 68-33.9 118.8-95.9 137.5-167.7 5.7-22.1 7-33 7-60.5v-25.6l12.5-.6c15.9-.8 33.9-4 52.8-9.3l5.2-1.5V69.8l-16.2 8.4c-57 29.5-91.9 62.6-103.6 98.5-3.6 10.8-7.2 32.6-7.2 43 0 2.4-.3 4.3-.6 4.3-.4 0-6.8-6-14.3-13.3-7.5-7.2-17.8-16.4-22.9-20.2l-9.2-7v-5c0-6.4-1.7-19.8-3.6-29.3-7.7-37.6-27.7-77.8-58.4-117.1l-5-6.5v5.1zm23.2 223.8c37.3 7.9 62.9 41.6 60.5 79.8-.7 10.9-3.4 20.2-9 31.2-3.2 6.1-6.3 10.1-13.2 17-10.2 10.2-16.9 14.5-28.7 18.6-25.1 8.5-51.1 4.3-71.8-11.6-38.8-29.8-39.4-89.3-1.3-119.6 17.9-14.2 41.8-20 63.5-15.4zM285 271c24.1 3 45.6 13.3 62.1 29.9 18.7 18.8 28.5 41.7 29.6 68.6 1.2 29.6-9 55.9-29.6 76.6-19.9 19.8-44.4 29.9-72.6 29.9-28.6 0-51.4-9.2-71.9-28.9-13.3-12.9-22.1-27.3-27.1-44.7-9.7-33.3-2.7-67.1 19.6-94.9 15.5-19.2 42-33.4 67.7-36.5 9.9-1.1 12.9-1.1 22.2 0z"/><path d="M425.7 303.1c-9.6 2.2-19.1 9.8-23.7 18.8-2.5 5-3.8 14.8-2.8 21.5 3 21 26.5 34.3 47 26.6 7.9-2.9 15-9.6 19-17.8 2.9-5.8 3.3-7.7 3.3-14.2 0-4.5-.7-9.5-1.8-12.5-5.6-16.3-24.1-26.4-41-22.4zm17.7 10c5 3.9 2.5 11.9-3.7 11.9-6.6 0-9.3-7.8-4.1-11.9 1.5-1.2 3.2-2.1 3.9-2.1.7 0 2.4.9 3.9 2.1zM320 330c-13.1 6.3-20.2 17.7-20.2 32.3 0 6.3.5 8.5 3.1 14 4.3 8.9 11.7 15.6 20.5 18.5 8.2 2.7 13.6 2.8 21.7.2 20.3-6.3 30.2-29 21-48.2-6-12.6-15.7-18.8-30.6-19.5-8.5-.4-9.4-.2-15.5 2.7zm24.8 7.6c2.4 1.6 3 6.1 1.2 9.4-2.3 4.2-10.1 3.1-11.7-1.7-2.4-6.8 4.5-11.9 10.5-7.7zM655 513v142H45V550H25l.2 62.2.3 62.3h649l.3-151.8.2-151.7h-20v142z"/></svg>