<?xml version="1.0" encoding="UTF-8" standalone="no"?>
<!-- Created with Inkscape (http://www.inkscape.org/) -->

<svg
   xmlns:dc="http://purl.org/dc/elements/1.1/"
   xmlns:cc="http://creativecommons.org/ns#"
   xmlns:rdf="http://www.w3.org/1999/02/22-rdf-syntax-ns#"
   xmlns:svg="http://www.w3.org/2000/svg"
   xmlns="http://www.w3.org/2000/svg"
   xmlns:sodipodi="http://sodipodi.sourceforge.net/DTD/sodipodi-0.dtd"
   xmlns:inkscape="http://www.inkscape.org/namespaces/inkscape"
   width="110.36761"
   height="110.01675"
   viewBox="0 0 29.201431 29.108601"
   version="1.1"
   id="svg8"
   inkscape:version="0.92.2 2405546, 2018-03-11"
   sodipodi:docname="icon_03.svg">
  <defs
     id="defs2" />
  <sodipodi:namedview
     id="base"
     pagecolor="#ffffff"
     bordercolor="#666666"
     borderopacity="1.0"
     inkscape:pageopacity="0.0"
     inkscape:pageshadow="2"
     inkscape:zoom="5.5627895"
     inkscape:cx="55.183804"
     inkscape:cy="55.008373"
     inkscape:document-units="px"
     inkscape:current-layer="layer1"
     showgrid="false"
     units="px"
     inkscape:window-width="1440"
     inkscape:window-height="843"
     inkscape:window-x="0"
     inkscape:window-y="29"
     inkscape:window-maximized="1"
     fit-margin-top="0"
     fit-margin-left="0"
     fit-margin-right="0"
     fit-margin-bottom="0" />
  <metadata
     id="metadata5">
    <rdf:RDF>
      <cc:Work
         rdf:about="">
        <dc:format>image/svg+xml</dc:format>
        <dc:type
           rdf:resource="http://purl.org/dc/dcmitype/StillImage" />
        <dc:title></dc:title>
      </cc:Work>
    </rdf:RDF>
  </metadata>
  <g
     inkscape:label="Capa 1"
     inkscape:groupmode="layer"
     id="layer1"
     transform="translate(-152.94001,-102.8048)">
    <g
       transform="translate(-164.49278,-122.43892)"
       id="g1062">
      <path
         inkscape:connector-curvature="0"
         style="fill:#448aff;fill-opacity:1;stroke:none;stroke-width:1.32291663;stroke-miterlimit:4;stroke-dasharray:none;stroke-opacity:1"
         d="m 345.97277,239.79699 c 0,1.15767 -0.1163,2.25743 -0.40669,3.29936 -0.17416,0.69462 -0.40651,1.33133 -0.63887,1.96803 -0.58076,1.5049 -1.45182,2.83623 -2.49738,3.9939 -0.46455,0.52088 -0.92926,0.98393 -1.51011,1.44698 -0.0583,0 -0.0583,0.0581 -0.11613,0.0581 -0.17425,0.17365 -0.40652,0.2894 -0.58077,0.46305 -1.97473,1.44707 -4.41409,2.37317 -6.96958,2.60466 -0.17416,0 -0.40652,0 -0.58077,0.0581 -0.23227,0 -0.4066,0 -0.63887,0 -0.17433,0 -0.4066,0 -0.63887,0 -0.17434,0 -0.40661,0 -0.58077,-0.0581 -2.61352,-0.23149 -4.99494,-1.15759 -7.02761,-2.60466 -0.17424,-0.11583 -0.40669,-0.2894 -0.58085,-0.46305 0,0 -0.0583,-0.0581 -0.0583,-0.0581 -0.52274,-0.46305 -1.04548,-0.9261 -1.5101,-1.44698 -1.04539,-1.15767 -1.91662,-2.54691 -2.49739,-3.9939 -0.29038,-0.6367 -0.46463,-1.27341 -0.63887,-1.96803 -0.23227,-1.04193 -0.4066,-2.14169 -0.4066,-3.29936 0,-7.69831 6.21457,-13.89181 13.93917,-13.89181 7.72459,0 13.93909,6.1935 13.93909,13.89181 z"
         id="path1598" />
      <g
         id="g974">
        <path
           inkscape:connector-curvature="0"
           style="fill:none;fill-opacity:1;stroke:#ffffff;stroke-width:1.32291663;stroke-miterlimit:4;stroke-dasharray:none;stroke-opacity:1"
           d="m 345.97277,239.79699 c 0,1.15767 -0.1163,2.25743 -0.40669,3.29936 -0.17416,0.69462 -0.40651,1.33133 -0.63887,1.96803 -0.58076,1.5049 -1.45182,2.83623 -2.49738,3.9939 -0.46455,0.52088 -0.92926,0.98393 -1.51011,1.44698 -0.0583,0 -0.0583,0.0581 -0.11613,0.0581 -0.17425,0.17365 -0.40652,0.2894 -0.58077,0.46305 -1.97473,1.44707 -4.41409,2.37317 -6.96958,2.60466 -0.17416,0 -0.40652,0 -0.58077,0.0581 -0.23227,0 -0.4066,0 -0.63887,0 -0.17433,0 -0.4066,0 -0.63887,0 -0.17434,0 -0.40661,0 -0.58077,-0.0581 -2.61352,-0.23149 -4.99494,-1.15759 -7.02761,-2.60466 -0.17424,-0.11583 -0.40669,-0.2894 -0.58085,-0.46305 0,0 -0.0583,-0.0581 -0.0583,-0.0581 -0.52274,-0.46305 -1.04548,-0.9261 -1.5101,-1.44698 -1.04539,-1.15767 -1.91662,-2.54691 -2.49739,-3.9939 -0.29038,-0.6367 -0.46463,-1.27341 -0.63887,-1.96803 -0.23227,-1.04193 -0.4066,-2.14169 -0.4066,-3.29936 0,-7.69831 6.21457,-13.89181 13.93917,-13.89181 7.72459,0 13.93909,6.1935 13.93909,13.89181 z"
           id="path1600" />
        <g
           id="g1640"
           transform="matrix(0.15447156,0,0,0.15447156,298.80272,217.53236)"
           style="fill:#f2f2f2;fill-opacity:1;stroke-width:6.47368383">
          <g
             id="g6"
             transform="matrix(0.26458334,0,0,0.26458334,147.39238,76.402024)"
             style="fill:#f2f2f2;fill-opacity:1;stroke-width:6.47368383">
            <g
               id="g4"
               style="fill:#f2f2f2;fill-opacity:1;stroke-width:6.47368383">
              <path
                 id="path2-5"
                 d="M 508.177,245.995 C 503.607,240.897 393.682,121 256,121 118.318,121 8.394,240.897 3.823,245.995 c -5.098,5.698 -5.098,14.312 0,20.01 C 8.394,271.103 118.32,391 256,391 c 137.68,0 247.606,-119.897 252.177,-124.995 5.097,-5.698 5.097,-14.312 0,-20.01 z M 256,361 c -57.891,0 -105,-47.109 -105,-105 0,-57.891 47.109,-105 105,-105 57.891,0 105,47.109 105,105 0,57.891 -47.109,105 -105,105 z"
                 inkscape:connector-curvature="0"
                 style="fill:#f2f2f2;fill-opacity:1;stroke-width:6.47368383" />
            </g>
          </g>
          <g
             id="g12"
             transform="matrix(0.26458334,0,0,0.26458334,147.39238,76.402024)"
             style="fill:#f2f2f2;fill-opacity:1;stroke-width:6.47368383">
            <g
               id="g10"
               style="fill:#f2f2f2;fill-opacity:1;stroke-width:6.47368383">
              <path
                 id="path8"
                 d="m 271,226 c 0,-15.09 7.491,-28.365 18.887,-36.53 C 279.661,184.235 268.255,181 256,181 c -41.353,0 -75,33.647 -75,75 0,41.353 33.647,75 75,75 37.024,0 67.668,-27.034 73.722,-62.358 C 299.516,278.367 271,255.522 271,226 Z"
                 inkscape:connector-curvature="0"
                 style="fill:#f2f2f2;fill-opacity:1;stroke-width:6.47368383" />
            </g>
          </g>
        </g>
      </g>
    </g>
  </g>
</svg>
