<svg xmlns="http://www.w3.org/2000/svg" width="732.01" height="668.825" viewBox="0 0 193.678 176.96">
  <g transform="translate(-1405.474 1302.315)">
    <g fill="#1565c0">
      <path d="M1505.693-1272.2l34.087 14.05c6.88-11.648 6.624-26.237-1.735-44.165-3.282 13.487.559 30.25-32.352 30.115zM1498.615-1272.2l-34.088 14.05c-6.88-11.648-6.624-26.237 1.736-44.165 3.282 13.487-.56 30.25 32.352 30.115z"/>
    </g>
    <path d="M1598.696-1272.82c2.44 3-5.029 34.211-19.81 41.566-5.31 3.408-25.72 4.712-30.245-.85-3.885-4.777.847-24.451 5.117-29.513 9.824-13.016 42.482-14.222 44.938-11.202z" fill="#448aff"/>
    <path d="M1588.075-1270.934c-9.352-.026-25.443 2.75-31.469 10.734-1.556 1.844-3.182 5.965-4.279 10.398a44.243 41.83 0 0 1 3.269 9.652c.045-.336.095-.674.15-1.015a21.039 19.891 0 0 1-.045-1.176 21.039 19.891 0 0 1 4.02-11.66c.384-.705.774-1.303 1.16-1.76 6.716-8.899 25.937-11.328 34.393-10.617.15-1.717.047-2.928-.321-3.381-.59-.725-3.218-1.165-6.878-1.175z" opacity=".75" fill="#1565c0"/>
    <path d="M1405.93-1272.82c-2.44 3 5.028 34.211 19.81 41.566 5.31 3.408 25.72 4.712 30.245-.85 3.885-4.777-.848-24.451-5.117-29.513-9.825-13.016-42.483-14.222-44.939-11.202z" fill="#448aff"/>
    <path d="M1416.55-1270.934c9.353-.026 25.444 2.75 31.47 10.734 1.556 1.844 3.182 5.965 4.278 10.398a44.243 41.83 0 0 0-3.268 9.652 44.002 44.002 0 0 0-.15-1.015 21.039 19.891 0 0 0 .045-1.176 21.039 19.891 0 0 0-4.02-11.66c-.385-.705-.774-1.303-1.16-1.76-6.716-8.899-25.937-11.328-34.393-10.617-.15-1.717-.048-2.928.321-3.381.59-.725 3.218-1.165 6.877-1.175z" opacity=".75" fill="#1565c0"/>
    <ellipse cx="1502.152" cy="-1235.458" rx="53.83" ry="50.894" fill="#448aff"/>
    <path d="M1524.456-1217.34c0 6.198-9.986 17.246-22.303 17.246-12.318 0-22.302-11.048-22.302-17.246 0-6.196 9.984 0 22.302 0 12.317 0 22.303-6.196 22.303 0" fill="#212121"/>
    <path d="M1513.352-1203.157c-3.29 1.85-7.114 3.064-11.198 3.064-4.084 0-7.907-1.214-11.2-3.064 1.985-1.48 6.252-2.5 11.2-2.5 4.948 0 9.214 1.02 11.198 2.5" fill="#ef5350"/>
    <path d="M1495.03-1199.529c7.756 6.033 13.923 4.214 19.23-1.858-5.643 4.055-11.83 5.667-19.23 1.858z" fill="#1565c0"/>
    <g transform="translate(1267.632 -1305.075) scale(.92331)">
      <circle r="16.679" cy="68.239" cx="278.589" fill="#fff"/>
      <circle cx="271.127" cy="68.239" r="7.738" fill="#1a1a1a"/>
      <circle r="1.548" cy="64.508" cx="273.366" fill="#fff"/>
    </g>
    <path d="M1516.73-1256.027c7.755-6.033 13.922-4.214 19.229 1.858-5.643-4.056-11.83-5.667-19.23-1.858z" fill="#1565c0"/>
    <g>
      <g transform="translate(1267.632 -1305.075) scale(.92331)">
        <circle cx="235.257" cy="67.551" r="22.526" fill="#fff"/>
        <circle r="7.738" cy="68.239" cx="248.739" fill="#1a1a1a"/>
        <circle cx="250.978" cy="64.508" r="1.548" fill="#fff"/>
      </g>
      <path d="M1494.35-1262.154c-8.981-6.032-16.123-4.213-22.269 1.858 6.534-4.055 13.7-5.667 22.27-1.858z" fill="#1565c0"/>
    </g>
    <g fill="#448aff">
      <path d="M1497.423-1281.058l4.688 3.972c1.467-6.11 1.952-13.052 1.323-20.938-.985 6.7-1.002 14.392-6.01 16.966z"/>
      <path d="M1494.928-1280.401l2.825 5.457c3.68-5.094 6.767-11.33 9.184-18.864-3.458 5.823-6.398 12.93-12.01 13.407z"/>
      <g>
        <path d="M1506.884-1276.172l-4.688 3.972c-1.466-6.11-1.951-13.052-1.322-20.938.985 6.7 1.002 14.392 6.01 16.966z"/>
        <path d="M1509.38-1275.515l-2.826 5.457c-3.679-5.094-6.767-11.33-9.183-18.864 3.458 5.823 6.398 12.93 12.009 13.407z"/>
      </g>
    </g>
    <path d="M1488.94-1190.606l30.252.225c2.319 13.504 8.601 26.884 12.632 40.354h-55.585c4.047-13.601 10.454-27.01 12.7-40.58z" fill="#448aff"/>
    <path d="M1486.926-1181.464s-11.72 6.82-24.99 30.771h6.89c6.798-8.016 17.297-19.138 19.254-20.414 2.853-1.858 5.135-9.748-1.154-10.357z" fill="#448aff"/>
    <g fill="#448aff">
      <path d="M1518.736-1184.11s15.453 7.258 33.307 37.59c0 0 8.063 4.847 12.18 18.228 1.115 6.512-13.748.16-13.748.16s-1.167-10.576-4.336-8.606l-3.173 1.963s-4.13-2.866-4.288-4.544c-.156-1.682 8.76-4.994 7.263-8.424-1.5-3.433-24.45-24.342-27.455-25.949-3.004-1.603-5.963-9.265.25-10.418"/>
    </g>
  </g>
</svg>
