<?xml version="1.0" encoding="UTF-8" standalone="no"?>
<!-- Created with Inkscape (http://www.inkscape.org/) -->

<svg
   xmlns:dc="http://purl.org/dc/elements/1.1/"
   xmlns:cc="http://creativecommons.org/ns#"
   xmlns:rdf="http://www.w3.org/1999/02/22-rdf-syntax-ns#"
   xmlns:svg="http://www.w3.org/2000/svg"
   xmlns="http://www.w3.org/2000/svg"
   xmlns:sodipodi="http://sodipodi.sourceforge.net/DTD/sodipodi-0.dtd"
   xmlns:inkscape="http://www.inkscape.org/namespaces/inkscape"
   width="110.36761"
   height="110.01675"
   viewBox="0 0 29.201431 29.108601"
   version="1.1"
   id="svg8"
   inkscape:version="0.92.2 2405546, 2018-03-11"
   sodipodi:docname="icon_02.svg">
  <defs
     id="defs2" />
  <sodipodi:namedview
     id="base"
     pagecolor="#ffffff"
     bordercolor="#666666"
     borderopacity="1.0"
     inkscape:pageopacity="0.0"
     inkscape:pageshadow="2"
     inkscape:zoom="5.5627895"
     inkscape:cx="55.183804"
     inkscape:cy="55.008373"
     inkscape:document-units="px"
     inkscape:current-layer="layer1"
     showgrid="false"
     units="px"
     inkscape:window-width="1440"
     inkscape:window-height="843"
     inkscape:window-x="0"
     inkscape:window-y="29"
     inkscape:window-maximized="1"
     fit-margin-top="0"
     fit-margin-left="0"
     fit-margin-right="0"
     fit-margin-bottom="0" />
  <metadata
     id="metadata5">
    <rdf:RDF>
      <cc:Work
         rdf:about="">
        <dc:format>image/svg+xml</dc:format>
        <dc:type
           rdf:resource="http://purl.org/dc/dcmitype/StillImage" />
        <dc:title></dc:title>
      </cc:Work>
    </rdf:RDF>
  </metadata>
  <g
     inkscape:label="Capa 1"
     inkscape:groupmode="layer"
     id="layer1"
     transform="translate(-152.94001,-102.8048)">
    <g
       transform="translate(-14.060049,-122.43892)"
       id="g1038">
      <path
         id="path1548"
         d="m 195.54004,239.79699 c 0,1.15767 -0.1163,2.25743 -0.40669,3.29936 -0.17416,0.69462 -0.40651,1.33133 -0.63887,1.96803 -0.58076,1.5049 -1.45182,2.83623 -2.49738,3.9939 -0.46455,0.52088 -0.92926,0.98393 -1.51011,1.44698 -0.0583,0 -0.0583,0.0581 -0.11613,0.0581 -0.17425,0.17365 -0.40652,0.2894 -0.58077,0.46305 -1.97473,1.44707 -4.41409,2.37317 -6.96958,2.60466 -0.17416,0 -0.40652,0 -0.58077,0.0581 -0.23227,0 -0.4066,0 -0.63887,0 -0.17433,0 -0.4066,0 -0.63887,0 -0.17434,0 -0.40661,0 -0.58077,-0.0581 -2.61352,-0.23149 -4.99494,-1.15759 -7.02761,-2.60466 -0.17424,-0.11583 -0.40669,-0.2894 -0.58085,-0.46305 0,0 -0.0583,-0.0581 -0.0583,-0.0581 -0.52274,-0.46305 -1.04548,-0.9261 -1.5101,-1.44698 -1.04539,-1.15767 -1.91662,-2.54691 -2.49739,-3.9939 -0.29038,-0.6367 -0.46463,-1.27341 -0.63887,-1.96803 -0.23227,-1.04193 -0.4066,-2.14169 -0.4066,-3.29936 0,-7.69831 6.21457,-13.89181 13.93917,-13.89181 7.72459,0 13.93909,6.1935 13.93909,13.89181 z"
         style="fill:#448aff;fill-opacity:1;stroke:none;stroke-width:1.32291663;stroke-miterlimit:4;stroke-dasharray:none;stroke-opacity:1"
         inkscape:connector-curvature="0" />
      <g
         id="g964">
        <path
           id="path1570"
           d="m 195.54004,239.79699 c 0,1.15767 -0.1163,2.25743 -0.40669,3.29936 -0.17416,0.69462 -0.40651,1.33133 -0.63887,1.96803 -0.58076,1.5049 -1.45182,2.83623 -2.49738,3.9939 -0.46455,0.52088 -0.92926,0.98393 -1.51011,1.44698 -0.0583,0 -0.0583,0.0581 -0.11613,0.0581 -0.17425,0.17365 -0.40652,0.2894 -0.58077,0.46305 -1.97473,1.44707 -4.41409,2.37317 -6.96958,2.60466 -0.17416,0 -0.40652,0 -0.58077,0.0581 -0.23227,0 -0.4066,0 -0.63887,0 -0.17433,0 -0.4066,0 -0.63887,0 -0.17434,0 -0.40661,0 -0.58077,-0.0581 -2.61352,-0.23149 -4.99494,-1.15759 -7.02761,-2.60466 -0.17424,-0.11583 -0.40669,-0.2894 -0.58085,-0.46305 0,0 -0.0583,-0.0581 -0.0583,-0.0581 -0.52274,-0.46305 -1.04548,-0.9261 -1.5101,-1.44698 -1.04539,-1.15767 -1.91662,-2.54691 -2.49739,-3.9939 -0.29038,-0.6367 -0.46463,-1.27341 -0.63887,-1.96803 -0.23227,-1.04193 -0.4066,-2.14169 -0.4066,-3.29936 0,-7.69831 6.21457,-13.89181 13.93917,-13.89181 7.72459,0 13.93909,6.1935 13.93909,13.89181 z"
           style="fill:none;fill-opacity:1;stroke:#ffffff;stroke-width:1.32291663;stroke-miterlimit:4;stroke-dasharray:none;stroke-opacity:1"
           inkscape:connector-curvature="0" />
        <g
           id="g1538"
           transform="matrix(0.09828508,0,0,0.09828508,180.96144,223.43966)"
           style="fill:#f2f2f2;fill-opacity:1;stroke-width:10.1744833">
          <path
             id="path2"
             d="m 27.671554,177.02114 c 26.26127,0 47.625,-21.36373 47.625,-47.62501 0,-26.26127 -21.36373,-47.625001 -47.625,-47.625001 -26.2612789,0 -47.625005,21.363731 -47.625005,47.625001 0,26.26128 21.3637261,47.62501 47.625005,47.62501 z m -5.29167,-73.10907 v -6.053722 c 0,-2.925575 2.36747,-5.291667 5.29167,-5.291667 2.92419,0 5.29166,2.366092 5.29166,5.291667 v 6.112982 c 3.49195,1.24988 6.54982,3.60219 8.45427,6.89846 1.46761,2.53283 0.59944,5.76709 -1.92788,7.22918 -2.55213,1.47313 -5.77673,0.59945 -7.22919,-1.92649 -0.94533,-1.63849 -2.70233,-2.65135 -4.58886,-2.65135 -2.92007,0 -5.29167,2.37161 -5.29167,5.29167 0,2.92006 2.3716,5.29167 5.29167,5.29167 8.7533,0 15.875,7.1217 15.875,15.875 0,6.89019 -4.43729,12.70827 -10.58334,14.90072 v 5.84288 c 0,2.9242 -2.36747,5.29167 -5.29166,5.29167 -2.9242,0 -5.29167,-2.36747 -5.29167,-5.29167 v -5.90213 c -3.49195,-1.25126 -6.549818,-3.6022 -8.454265,-6.89846 -1.467612,-2.53284 -0.599445,-5.76709 1.927876,-7.22919 2.531459,-1.48828 5.771219,-0.60496 7.229189,1.9265 0.94533,1.63849 2.70233,2.65134 4.58887,2.65134 2.92006,0 5.29166,-2.3716 5.29166,-5.29166 0,-2.92006 -2.3716,-5.29167 -5.29166,-5.29167 -8.7533,0 -15.875005,-7.1217 -15.875005,-15.875 0,-6.89019 4.437285,-12.70827 10.583335,-14.90073 z m 0,0"
             inkscape:connector-curvature="0"
             style="fill:#f2f2f2;fill-opacity:1;stroke-width:3.58933187" />
          <path
             id="path4"
             d="m 90.646524,183.83554 c -3.72071,-1.46486 -7.95817,-0.50574 -10.68669,2.4157 0.0427,-0.0441 -10.39316,10.78728 -26.57133,28.02241 -2.53973,2.85805 -6.03168,4.55166 -9.84195,4.86861 -1.03767,0.34726 -41.7683449,0.21221 -42.86250488,0.21221 -2.96415902,0 -5.29166702,-2.32888 -5.29166702,-5.29167 0,-2.96415 2.327508,-5.29166 5.29166702,-5.29166 H 38.254884 c 5.84564,0 10.58333,-4.73907 10.58333,-10.58334 0,-5.84563 -4.73769,-10.58333 -10.58333,-10.58333 H 8.5154401 l -4.021116,-3.49332 c -14.022917,-12.17911 -34.8726371,-12.17911 -48.8955531,0 l -4.021117,3.49332 h -30.092221 c -2.922819,0 -5.291667,2.36885 -5.291667,5.29167 v 42.33333 c 0,2.92282 2.368848,5.29167 5.291667,5.29167 h 31.361396 c 2.85805,0.84612 5.714725,2.11667 8.784992,3.38722 7.831392,3.38584 16.722495,7.19611 29.4211191,7.19611 H 43.546554 c 8.32886,0 16.1699,-3.92051 21.16666,-10.58333 l 28.92778,-38.1 c 2.11667,-2.75194 3.175,-6.03305 3.175,-9.525 -0.001,-4.0032 -2.44877,-7.59437 -6.16947,-9.0606 z m 0,0"
             inkscape:connector-curvature="0"
             style="fill:#f2f2f2;fill-opacity:1;stroke-width:3.58933187" />
        </g>
      </g>
    </g>
  </g>
</svg>
