<svg xmlns="http://www.w3.org/2000/svg" width="525.254" height="720" viewBox="0 0 138.973 190.5">
  <g fill="#d1d1d1">
    <path d="M68.38 60.171l-.046 92.06L1.677 68l-.81-1.033c-.211-.256-.5-.4-.8-.412A62.381 62.381 0 0 0 0 69.443l68.566 86.663c.222.278.544.422.876.422.123 0 .245-.021.367-.066.444-.155.744-.566.745-1.044l.047-95.246z"/>
    <path d="M138.972 69.5l-68.663 86.607c-.211.266-.533.422-.867.421-.044 0-.088 0-.122-.01a1.085 1.085 0 0 1-.876-.623L27.148 68.778l-.3-.633a1.099 1.099 0 0 1 .523-1.476 1.1 1.1 0 0 1 1.476.522l.444.933 40.386 85.207 67.607-85.265.811-1.032c.21-.255.51-.4.81-.41.045.955.067 1.91.067 2.876z"/>
    <path d="M69.441 156.528a1.11 1.11 0 0 1-1.096-.937L54.51 67.851a1.108 1.108 0 0 1 .924-1.27c.6-.096 1.174.319 1.269.924l12.743 80.807 12.823-80.795a1.11 1.11 0 0 1 2.193.349l-13.923 87.726c-.085.54-.55.937-1.097.936z"/>
    <path d="M69.44 156.528a1.11 1.11 0 0 1-1-1.587l41.678-87.71a1.11 1.11 0 1 1 2.005.954l-41.678 87.71c-.19.4-.59.634-1.005.633z"/>
  </g>
  <path d="M138.97 69.501l-.087.01c-7.669-7.71-20.094-7.717-27.76-.014-7.668-7.71-20.093-7.716-27.758-.014-7.669-7.71-20.094-7.716-27.76-.013-7.657-7.71-20.093-7.717-27.758-.014-7.658-7.71-20.082-7.716-27.76-.014l-.086.01C.021 31.078 31.147-.018 69.521 0c38.374.019 69.471 31.147 69.452 69.52z" fill="#629ace"/>
  <path d="M111.12 69.49c-7.692-7.343-20.213-7.596-27.756-.016-7.669-7.71-20.094-7.716-27.76-.014-7.535-7.588-20.069-7.347-27.756-.01C30.898 30.365 48.611.06 69.518.07c20.909.01 38.59 30.334 41.601 69.42z" fill="#ebf0f3"/>
  <path d="M83.486 69.352l-.123.121c-7.668-7.71-20.093-7.716-27.759-.014a9.266 9.266 0 0 1-.121-.122C56.835 29.998 62.679.1 69.518.102c6.84.004 12.656 29.909 13.968 69.249zM100.505 144.336l-.021 42.69a3.475 3.475 0 0 1-3.478 3.474l-55.164-.027a3.475 3.475 0 0 1-3.474-3.478l.021-42.69a3.476 3.476 0 0 1 3.478-3.474l55.164.027a3.475 3.475 0 0 1 3.474 3.478z" fill="#6dabe4"/>
</svg>
