<svg xmlns="http://www.w3.org/2000/svg" width="420" height="142.06" viewBox="0 0 111.125 37.587"><g aria-label="IMP" style="line-height:1.25;-inkscape-font-specification:Agenda;text-align:end" font-weight="400" font-size="30.319" font-family="Agenda" letter-spacing="0" word-spacing="0" text-anchor="end" fill="#448aff" stroke-width=".403"><path d="M60.145 34.548V15.204h6.458v19.344zM87.235 34.548l-.455-5.518q-.06-.607-.09-1.274-.031-.697.03-1.485h-.061q-.243.818-.485 1.485-.243.637-.607 1.334l-2.82 5.458H80.08l-2.82-5.458q-.667-1.304-1.122-2.82h-.06q.06.789.03 1.426 0 .636-.06 1.334l-.455 5.518h-6.428l1.668-19.344h5.82l3.275 6.337q.334.667.728 1.576.424.88.728 1.668h.03q.273-.788.637-1.668.394-.879.757-1.576l3.245-6.337h5.882l1.697 19.344zM105.092 21.51q0-.697-.486-1.03-.485-.364-1-.364h-1.395v2.79h1.395q.515 0 1-.334.486-.364.486-1.062zm6.033 0q0 1.365-.485 2.517t-1.395 2.001q-.879.819-2.122 1.304-1.213.485-2.668.485h-2.244v6.73h-6.155V15.205h8.399q1.455 0 2.668.485 1.243.485 2.122 1.334.91.819 1.395 1.971.485 1.152.485 2.516z" style="-inkscape-font-specification:Agenda"/></g><g transform="rotate(-10.259 152.726 1018.688) scale(.28176)"><g fill="#1565c0"><path d="M750.607 17.965l36.919 15.217c7.45-12.615 7.174-28.416-1.88-47.834-3.555 14.608.606 32.763-35.04 32.617zM742.941 17.965l-36.919 15.217c-7.45-12.615-7.174-28.416 1.88-47.834 3.555 14.608-.606 32.763 35.04 32.617z"/></g><path d="M851.335 17.294c2.642 3.248-5.446 37.052-21.456 45.018-5.751 3.69-27.856 5.103-32.756-.921-4.208-5.173.917-26.482 5.541-31.964 10.64-14.097 46.011-15.403 48.671-12.133z" fill="#448aff"/><path d="M839.832 19.336c-10.13-.028-27.557 2.98-34.083 11.625-1.685 1.998-3.446 6.461-4.634 11.262a47.918 45.304 0 0 1 3.54 10.454c.049-.364.103-.73.162-1.099a22.786 21.543 0 0 1-.048-1.274 22.786 21.543 0 0 1 4.353-12.628c.417-.764.839-1.412 1.256-1.907 7.275-9.638 28.092-12.268 37.25-11.499.163-1.86.052-3.171-.347-3.662-.639-.785-3.485-1.26-7.449-1.272z" opacity=".75" fill="#1565c0"/><path d="M642.557 17.294c-2.641 3.248 5.447 37.052 21.457 45.018 5.751 3.69 27.856 5.103 32.756-.921 4.208-5.173-.917-26.482-5.542-31.964-10.64-14.097-46.01-15.403-48.67-12.133z" fill="#448aff"/><path d="M654.06 19.336c10.13-.028 27.558 2.98 34.083 11.625 1.686 1.998 3.447 6.461 4.635 11.262a47.918 45.304 0 0 0-3.54 10.454c-.049-.364-.103-.73-.162-1.099a22.786 21.543 0 0 0 .048-1.274 22.786 21.543 0 0 0-4.353-12.628c-.417-.764-.84-1.412-1.256-1.907-7.275-9.638-28.093-12.268-37.25-11.499-.163-1.86-.052-3.171.347-3.662.638-.785 3.485-1.26 7.449-1.272z" opacity=".75" fill="#1565c0"/><ellipse ry="55.121" rx="58.302" cy="57.758" cx="746.774" fill="#448aff"/><path d="M770.929 77.381c0 6.713-10.815 18.679-24.156 18.679-13.34 0-24.154-11.966-24.154-18.679 0-6.71 10.814 0 24.154 0s24.156-6.71 24.156 0" fill="#212121"/><path d="M758.902 92.742c-3.564 2.005-7.705 3.32-12.128 3.32-4.422 0-8.564-1.315-12.13-3.32 2.15-1.602 6.771-2.707 12.13-2.707 5.36 0 9.98 1.105 12.128 2.707" fill="#ef5350"/><path d="M739.059 96.672c8.4 6.534 15.079 4.564 20.826-2.012-6.11 4.392-12.813 6.137-20.826 2.012z" fill="#1565c0"/><g><g transform="translate(492.774 -17.641)"><circle cx="278.589" cy="68.239" r="16.679" fill="#fff"/><circle r="7.738" cy="68.239" cx="271.127" fill="#1a1a1a"/><circle cx="273.366" cy="64.508" r="1.548" fill="#fff"/></g><path d="M762.56 35.48c8.4-6.533 15.08-4.563 20.827 2.013-6.111-4.392-12.813-6.138-20.827-2.012z" fill="#1565c0"/><g><g transform="translate(492.774 -17.641)"><circle r="22.526" cy="67.551" cx="235.257" fill="#fff"/><circle cx="248.739" cy="68.239" r="7.738" fill="#1a1a1a"/><circle r="1.548" cy="64.508" cx="250.978" fill="#fff"/></g><path d="M738.322 28.845c-9.727-6.533-17.462-4.563-24.118 2.013 7.077-4.392 14.838-6.138 24.118-2.013z" fill="#1565c0"/></g></g><g fill="#448aff"><path d="M741.65 8.37l5.078 4.303c1.588-6.617 2.113-14.136 1.432-22.677-1.066 7.256-1.085 15.587-6.51 18.375z"/><path d="M738.948 9.083l3.06 5.91c3.985-5.518 7.33-12.272 9.946-20.43-3.745 6.305-6.93 14.004-13.006 14.52z"/><g><path d="M751.897 13.662l-5.077 4.303c-1.588-6.618-2.114-14.136-1.432-22.678 1.066 7.257 1.085 15.588 6.51 18.375z"/><path d="M754.6 14.374l-3.06 5.91c-3.985-5.517-7.33-12.271-9.946-20.43 3.745 6.306 6.93 14.004 13.006 14.52z"/></g></g></g></svg>