<?xml version="1.0" encoding="UTF-8" standalone="no"?>
<!-- Created with Inkscape (http://www.inkscape.org/) -->

<svg
   xmlns:dc="http://purl.org/dc/elements/1.1/"
   xmlns:cc="http://creativecommons.org/ns#"
   xmlns:rdf="http://www.w3.org/1999/02/22-rdf-syntax-ns#"
   xmlns:svg="http://www.w3.org/2000/svg"
   xmlns="http://www.w3.org/2000/svg"
   xmlns:sodipodi="http://sodipodi.sourceforge.net/DTD/sodipodi-0.dtd"
   xmlns:inkscape="http://www.inkscape.org/namespaces/inkscape"
   width="110.36761"
   height="110.01675"
   viewBox="0 0 29.201431 29.108601"
   version="1.1"
   id="svg8"
   inkscape:version="0.92.2 2405546, 2018-03-11"
   sodipodi:docname="icon_01.svg">
  <defs
     id="defs2" />
  <sodipodi:namedview
     id="base"
     pagecolor="#ffffff"
     bordercolor="#666666"
     borderopacity="1.0"
     inkscape:pageopacity="0.0"
     inkscape:pageshadow="2"
     inkscape:zoom="5.5627895"
     inkscape:cx="55.183804"
     inkscape:cy="55.008373"
     inkscape:document-units="px"
     inkscape:current-layer="layer1"
     showgrid="false"
     units="px"
     inkscape:window-width="1440"
     inkscape:window-height="843"
     inkscape:window-x="0"
     inkscape:window-y="29"
     inkscape:window-maximized="1"
     fit-margin-top="0"
     fit-margin-left="0"
     fit-margin-right="0"
     fit-margin-bottom="0" />
  <metadata
     id="metadata5">
    <rdf:RDF>
      <cc:Work
         rdf:about="">
        <dc:format>image/svg+xml</dc:format>
        <dc:type
           rdf:resource="http://purl.org/dc/dcmitype/StillImage" />
        <dc:title></dc:title>
      </cc:Work>
    </rdf:RDF>
  </metadata>
  <g
     inkscape:label="Capa 1"
     inkscape:groupmode="layer"
     id="layer1"
     transform="translate(-152.94001,-102.8048)">
    <g
       id="g891"
       transform="translate(107.79765,-122.43892)">
      <path
         id="path871"
         d="m 73.682331,239.79699 c 0,1.15768 -0.116307,2.25743 -0.406689,3.29936 -0.17416,0.69463 -0.406517,1.33133 -0.638874,1.96804 -0.580763,1.5049 -1.451822,2.83622 -2.497384,3.9939 -0.464542,0.52088 -0.929255,0.98393 -1.510104,1.44698 -0.05828,0 -0.05828,0.0581 -0.116136,0.0581 -0.174246,0.17366 -0.406517,0.2894 -0.580763,0.46305 -1.974732,1.44707 -4.414091,2.37318 -6.969586,2.60466 -0.17416,0 -0.406517,0 -0.580763,0.0581 -0.232271,0 -0.406603,0 -0.638874,0 -0.174332,0 -0.406603,0 -0.638874,0 -0.174331,0 -0.406602,0 -0.580763,-0.0581 -2.61352,-0.23148 -4.99494,-1.15759 -7.027611,-2.60466 -0.174246,-0.11582 -0.406688,-0.28939 -0.580849,-0.46305 0,0 -0.05828,-0.0581 -0.05828,-0.0581 -0.522738,-0.46305 -1.045476,-0.9261 -1.510104,-1.44698 -1.045391,-1.15768 -1.916621,-2.54692 -2.497384,-3.9939 -0.290382,-0.63671 -0.464628,-1.27341 -0.638874,-1.96804 -0.232271,-1.04193 -0.406603,-2.14168 -0.406603,-3.29936 0,-7.69831 6.214577,-13.89181 13.939173,-13.89181 7.724595,0 13.939087,6.1935 13.939087,13.89181 z"
         style="fill:#448aff;fill-opacity:1;stroke:none;stroke-width:1.32291663;stroke-miterlimit:4;stroke-dasharray:none;stroke-opacity:1"
         inkscape:connector-curvature="0" />
      <g
         id="g889">
        <g
           style="stroke:none;stroke-width:1.37333763;stroke-opacity:1"
           id="g885"
           transform="matrix(0.04139168,0,0,0.04125128,49.363075,228.39636)">
          <path
             inkscape:connector-curvature="0"
             style="fill:#f2f2f2;stroke:none;stroke-width:1.37333763;stroke-opacity:1"
             d="m 311.38,281.078 -3.135,88.816 -57.469,38.661 -57.469,-38.661 -2.09,-87.771 c 0,0 18.808,-17.763 13.584,-35.527 h 91.951 c -4.181,16.718 14.628,34.482 14.628,34.482 z"
             id="path873" />
          <path
             inkscape:connector-curvature="0"
             style="fill:#f2f2f2;stroke:none;stroke-width:1.37333763;stroke-opacity:1"
             d="m 437.812,400.196 v 17.763 c -8.359,9.404 -16.718,17.763 -27.167,26.122 -1.045,0 -1.045,1.045 -2.09,1.045 -3.135,3.135 -7.314,5.224 -10.449,8.359 -35.527,26.122 -79.412,42.841 -125.388,47.02 -3.135,0 -7.314,0 -10.449,1.045 -4.18,0 -7.314,0 -11.494,0 -3.135,0 -7.314,0 -11.494,0 -3.135,0 -7.314,0 -10.449,-1.045 -47.02,-4.18 -89.861,-20.898 -126.433,-47.02 -3.135,-2.09 -7.314,-5.224 -10.449,-8.359 0,0 -1.045,-1.045 -1.045,-1.045 -9.404,-8.359 -18.808,-16.718 -27.167,-26.122 v -17.763 c 0,-29.257 15.673,-56.424 40.751,-71.053 l 42.841,-24.033 42.841,-24.033 37.616,90.906 14.629,-61.649 -10.449,-11.494 h 37.616 l -10.449,11.494 14.629,61.649 37.616,-90.906 v 0 l 42.841,24.033 41.796,24.033 c 26.123,14.628 41.796,41.796 41.796,71.053 z"
             id="path875" />
          <ellipse
             transform="matrix(-0.3814,-0.9244,0.9244,-0.3814,85.9208,396.3624)"
             style="fill:#f2f2f2;stroke:none;stroke-width:1.37333763;stroke-opacity:1"
             cx="175.57899"
             cy="169.433"
             rx="20.898001"
             ry="14.628"
             id="ellipse877" />
          <ellipse
             transform="matrix(-0.9244,-0.3814,0.3814,-0.9244,562.4698,449.2699)"
             style="fill:#f2f2f2;stroke:none;stroke-width:1.37333763;stroke-opacity:1"
             cx="325.75601"
             cy="168.896"
             rx="14.628"
             ry="20.898001"
             id="ellipse879" />
          <path
             inkscape:connector-curvature="0"
             style="fill:#f2f2f2;stroke:none;stroke-width:1.37333763;stroke-opacity:1"
             d="m 334.367,134.792 c 0,4.18 0,9.404 -1.045,14.629 v 0 c -6.269,49.11 -40.751,129.567 -82.547,129.567 -41.796,0 -76.278,-79.412 -82.547,-129.567 -1.045,-5.224 -1.045,-10.449 -1.045,-14.629 0,-45.975 37.616,-83.592 83.592,-83.592 45.976,0 83.592,37.616 83.592,83.592 z"
             id="path881" />
          <path
             inkscape:connector-curvature="0"
             style="fill:#f2f2f2;stroke:none;stroke-width:1.37333763;stroke-opacity:1"
             d="m 334.367,134.792 c 0,4.18 0,9.404 -1.045,14.629 -2.09,-8.359 -11.494,-37.616 -20.898,-26.122 -3.135,4.18 -10.449,3.135 -12.539,-2.09 -2.09,-5.224 -3.135,-11.494 -3.135,-17.763 0,-6.269 -6.269,-11.494 -11.494,-9.404 -4.18,1.045 -9.404,5.224 -13.584,12.539 0,0 -6.269,9.404 -19.853,10.449 -13.584,-1.045 -19.853,-10.449 -19.853,-10.449 -5.224,-7.314 -10.449,-11.494 -13.584,-12.539 -6.269,-2.09 -11.494,3.135 -11.494,9.404 0,6.269 -1.045,12.539 -3.135,17.763 -2.09,5.224 -8.359,6.269 -12.539,2.09 -9.404,-12.539 -18.808,17.763 -20.898,26.122 -1.045,-5.224 -1.045,-10.449 -1.045,-14.629 0,-45.975 37.616,-83.592 83.592,-83.592 43.888,0 81.504,37.616 81.504,83.592 z"
             id="path883" />
        </g>
        <path
           id="path887"
           d="m 73.682331,239.79699 c 0,1.15768 -0.116307,2.25743 -0.406689,3.29936 -0.17416,0.69463 -0.406517,1.33133 -0.638874,1.96804 -0.580763,1.5049 -1.451822,2.83622 -2.497384,3.9939 -0.464542,0.52088 -0.929255,0.98393 -1.510104,1.44698 -0.05828,0 -0.05828,0.0581 -0.116136,0.0581 -0.174246,0.17366 -0.406517,0.2894 -0.580763,0.46305 -1.974732,1.44707 -4.414091,2.37318 -6.969586,2.60466 -0.17416,0 -0.406517,0 -0.580763,0.0581 -0.232271,0 -0.406603,0 -0.638874,0 -0.174332,0 -0.406603,0 -0.638874,0 -0.174331,0 -0.406602,0 -0.580763,-0.0581 -2.61352,-0.23148 -4.99494,-1.15759 -7.027611,-2.60466 -0.174246,-0.11582 -0.406688,-0.28939 -0.580849,-0.46305 0,0 -0.05828,-0.0581 -0.05828,-0.0581 -0.522738,-0.46305 -1.045476,-0.9261 -1.510104,-1.44698 -1.045391,-1.15768 -1.916621,-2.54692 -2.497384,-3.9939 -0.290382,-0.63671 -0.464628,-1.27341 -0.638874,-1.96804 -0.232271,-1.04193 -0.406603,-2.14168 -0.406603,-3.29936 0,-7.69831 6.214577,-13.89181 13.939173,-13.89181 7.724595,0 13.939087,6.1935 13.939087,13.89181 z"
           style="fill:none;fill-opacity:1;stroke:#ffffff;stroke-width:1.32291663;stroke-miterlimit:4;stroke-dasharray:none;stroke-opacity:1"
           inkscape:connector-curvature="0" />
      </g>
    </g>
  </g>
</svg>
